<mxfile host="Electron" modified="2024-04-05T10:25:57.759Z" agent="Mozilla/5.0 (Windows NT 10.0; Win64; x64) AppleWebKit/537.36 (KHTML, like Gecko) draw.io/24.1.0 Chrome/120.0.6099.109 Electron/28.1.0 Safari/537.36" etag="eQ31yIbcEwq6fsecOpsj" version="24.1.0" type="device">
  <diagram name="Pagina-1" id="6ffvwWn4aaiCH4mIrwER">
    <mxGraphModel dx="1035" dy="626" grid="1" gridSize="10" guides="1" tooltips="1" connect="1" arrows="1" fold="1" page="1" pageScale="1" pageWidth="827" pageHeight="1169" math="0" shadow="0">
      <root>
        <mxCell id="0" />
        <mxCell id="1" parent="0" />
        <mxCell id="gCWeyHVxX5DOliwRVkcP-5" style="edgeStyle=orthogonalEdgeStyle;rounded=0;orthogonalLoop=1;jettySize=auto;html=1;entryX=0;entryY=0.5;entryDx=0;entryDy=0;" edge="1" parent="1" source="gCWeyHVxX5DOliwRVkcP-1" target="gCWeyHVxX5DOliwRVkcP-2">
          <mxGeometry relative="1" as="geometry" />
        </mxCell>
        <mxCell id="gCWeyHVxX5DOliwRVkcP-10" style="edgeStyle=orthogonalEdgeStyle;rounded=0;orthogonalLoop=1;jettySize=auto;html=1;entryX=0;entryY=0.5;entryDx=0;entryDy=0;" edge="1" parent="1" source="gCWeyHVxX5DOliwRVkcP-1" target="gCWeyHVxX5DOliwRVkcP-8">
          <mxGeometry relative="1" as="geometry" />
        </mxCell>
        <mxCell id="gCWeyHVxX5DOliwRVkcP-13" style="edgeStyle=orthogonalEdgeStyle;rounded=0;orthogonalLoop=1;jettySize=auto;html=1;entryX=0;entryY=0.5;entryDx=0;entryDy=0;" edge="1" parent="1" source="gCWeyHVxX5DOliwRVkcP-1" target="gCWeyHVxX5DOliwRVkcP-11">
          <mxGeometry relative="1" as="geometry" />
        </mxCell>
        <mxCell id="gCWeyHVxX5DOliwRVkcP-37" style="edgeStyle=orthogonalEdgeStyle;rounded=0;orthogonalLoop=1;jettySize=auto;html=1;entryX=0;entryY=0.5;entryDx=0;entryDy=0;endArrow=doubleBlock;endFill=1;" edge="1" parent="1" source="gCWeyHVxX5DOliwRVkcP-1" target="gCWeyHVxX5DOliwRVkcP-14">
          <mxGeometry relative="1" as="geometry" />
        </mxCell>
        <mxCell id="gCWeyHVxX5DOliwRVkcP-1" value="Sistema" style="rounded=0;whiteSpace=wrap;html=1;" vertex="1" parent="1">
          <mxGeometry x="40" y="80" width="120" height="60" as="geometry" />
        </mxCell>
        <mxCell id="gCWeyHVxX5DOliwRVkcP-2" value="" style="ellipse;whiteSpace=wrap;html=1;aspect=fixed;fillColor=#f5f5f5;fontColor=#333333;strokeColor=#666666;" vertex="1" parent="1">
          <mxGeometry x="160" y="160" width="30" height="30" as="geometry" />
        </mxCell>
        <mxCell id="gCWeyHVxX5DOliwRVkcP-3" value="Codice" style="text;html=1;align=center;verticalAlign=middle;resizable=0;points=[];autosize=1;strokeColor=none;fillColor=none;" vertex="1" parent="1">
          <mxGeometry x="185" y="160" width="60" height="30" as="geometry" />
        </mxCell>
        <mxCell id="gCWeyHVxX5DOliwRVkcP-8" value="" style="ellipse;whiteSpace=wrap;html=1;aspect=fixed;" vertex="1" parent="1">
          <mxGeometry x="160" y="200" width="30" height="30" as="geometry" />
        </mxCell>
        <mxCell id="gCWeyHVxX5DOliwRVkcP-9" value="Nome" style="text;html=1;align=center;verticalAlign=middle;resizable=0;points=[];autosize=1;strokeColor=none;fillColor=none;" vertex="1" parent="1">
          <mxGeometry x="185" y="200" width="60" height="30" as="geometry" />
        </mxCell>
        <mxCell id="gCWeyHVxX5DOliwRVkcP-11" value="" style="ellipse;whiteSpace=wrap;html=1;aspect=fixed;" vertex="1" parent="1">
          <mxGeometry x="160" y="240" width="30" height="30" as="geometry" />
        </mxCell>
        <mxCell id="gCWeyHVxX5DOliwRVkcP-12" value="Tipo" style="text;html=1;align=center;verticalAlign=middle;resizable=0;points=[];autosize=1;strokeColor=none;fillColor=none;" vertex="1" parent="1">
          <mxGeometry x="190" y="240" width="50" height="30" as="geometry" />
        </mxCell>
        <mxCell id="gCWeyHVxX5DOliwRVkcP-14" value="Possiede" style="rhombus;whiteSpace=wrap;html=1;" vertex="1" parent="1">
          <mxGeometry x="333.5" y="70" width="80" height="80" as="geometry" />
        </mxCell>
        <mxCell id="gCWeyHVxX5DOliwRVkcP-18" style="edgeStyle=orthogonalEdgeStyle;rounded=0;orthogonalLoop=1;jettySize=auto;html=1;entryX=0;entryY=0.5;entryDx=0;entryDy=0;" edge="1" parent="1" source="gCWeyHVxX5DOliwRVkcP-15" target="gCWeyHVxX5DOliwRVkcP-16">
          <mxGeometry relative="1" as="geometry" />
        </mxCell>
        <mxCell id="gCWeyHVxX5DOliwRVkcP-21" style="edgeStyle=orthogonalEdgeStyle;rounded=0;orthogonalLoop=1;jettySize=auto;html=1;entryX=0;entryY=0.5;entryDx=0;entryDy=0;" edge="1" parent="1" source="gCWeyHVxX5DOliwRVkcP-15" target="gCWeyHVxX5DOliwRVkcP-19">
          <mxGeometry relative="1" as="geometry">
            <Array as="points">
              <mxPoint x="642" y="215" />
            </Array>
          </mxGeometry>
        </mxCell>
        <mxCell id="gCWeyHVxX5DOliwRVkcP-24" style="edgeStyle=orthogonalEdgeStyle;rounded=0;orthogonalLoop=1;jettySize=auto;html=1;entryX=0;entryY=0.5;entryDx=0;entryDy=0;" edge="1" parent="1" source="gCWeyHVxX5DOliwRVkcP-15" target="gCWeyHVxX5DOliwRVkcP-22">
          <mxGeometry relative="1" as="geometry">
            <Array as="points">
              <mxPoint x="642" y="255" />
            </Array>
          </mxGeometry>
        </mxCell>
        <mxCell id="gCWeyHVxX5DOliwRVkcP-27" style="edgeStyle=orthogonalEdgeStyle;rounded=0;orthogonalLoop=1;jettySize=auto;html=1;entryX=0;entryY=0.5;entryDx=0;entryDy=0;" edge="1" parent="1" source="gCWeyHVxX5DOliwRVkcP-15" target="gCWeyHVxX5DOliwRVkcP-25">
          <mxGeometry relative="1" as="geometry">
            <Array as="points">
              <mxPoint x="642" y="295" />
            </Array>
          </mxGeometry>
        </mxCell>
        <mxCell id="gCWeyHVxX5DOliwRVkcP-30" style="edgeStyle=orthogonalEdgeStyle;rounded=0;orthogonalLoop=1;jettySize=auto;html=1;entryX=0;entryY=0.5;entryDx=0;entryDy=0;" edge="1" parent="1" source="gCWeyHVxX5DOliwRVkcP-15" target="gCWeyHVxX5DOliwRVkcP-28">
          <mxGeometry relative="1" as="geometry">
            <Array as="points">
              <mxPoint x="642" y="335" />
            </Array>
          </mxGeometry>
        </mxCell>
        <mxCell id="gCWeyHVxX5DOliwRVkcP-33" style="edgeStyle=orthogonalEdgeStyle;rounded=0;orthogonalLoop=1;jettySize=auto;html=1;entryX=0;entryY=0.5;entryDx=0;entryDy=0;" edge="1" parent="1" source="gCWeyHVxX5DOliwRVkcP-15" target="gCWeyHVxX5DOliwRVkcP-31">
          <mxGeometry relative="1" as="geometry">
            <Array as="points">
              <mxPoint x="642" y="375" />
            </Array>
          </mxGeometry>
        </mxCell>
        <mxCell id="gCWeyHVxX5DOliwRVkcP-36" style="edgeStyle=orthogonalEdgeStyle;rounded=0;orthogonalLoop=1;jettySize=auto;html=1;entryX=0;entryY=0.5;entryDx=0;entryDy=0;" edge="1" parent="1" source="gCWeyHVxX5DOliwRVkcP-15" target="gCWeyHVxX5DOliwRVkcP-34">
          <mxGeometry relative="1" as="geometry">
            <Array as="points">
              <mxPoint x="642" y="415" />
            </Array>
          </mxGeometry>
        </mxCell>
        <mxCell id="gCWeyHVxX5DOliwRVkcP-38" style="edgeStyle=orthogonalEdgeStyle;rounded=0;orthogonalLoop=1;jettySize=auto;html=1;entryX=1;entryY=0.5;entryDx=0;entryDy=0;endArrow=doubleBlock;endFill=1;" edge="1" parent="1" source="gCWeyHVxX5DOliwRVkcP-15" target="gCWeyHVxX5DOliwRVkcP-14">
          <mxGeometry relative="1" as="geometry" />
        </mxCell>
        <mxCell id="gCWeyHVxX5DOliwRVkcP-44" style="edgeStyle=orthogonalEdgeStyle;rounded=0;orthogonalLoop=1;jettySize=auto;html=1;entryX=0;entryY=0.5;entryDx=0;entryDy=0;" edge="1" parent="1" source="gCWeyHVxX5DOliwRVkcP-15" target="gCWeyHVxX5DOliwRVkcP-42">
          <mxGeometry relative="1" as="geometry">
            <Array as="points">
              <mxPoint x="642" y="455" />
            </Array>
          </mxGeometry>
        </mxCell>
        <mxCell id="gCWeyHVxX5DOliwRVkcP-15" value="Corpo" style="rounded=0;whiteSpace=wrap;html=1;" vertex="1" parent="1">
          <mxGeometry x="582" y="80" width="120" height="60" as="geometry" />
        </mxCell>
        <mxCell id="gCWeyHVxX5DOliwRVkcP-16" value="" style="ellipse;whiteSpace=wrap;html=1;aspect=fixed;fillColor=#eeeeee;strokeColor=#36393d;" vertex="1" parent="1">
          <mxGeometry x="702" y="160" width="30" height="30" as="geometry" />
        </mxCell>
        <mxCell id="gCWeyHVxX5DOliwRVkcP-17" value="Codice" style="text;html=1;align=center;verticalAlign=middle;resizable=0;points=[];autosize=1;strokeColor=none;fillColor=none;" vertex="1" parent="1">
          <mxGeometry x="727" y="160" width="60" height="30" as="geometry" />
        </mxCell>
        <mxCell id="gCWeyHVxX5DOliwRVkcP-19" value="" style="ellipse;whiteSpace=wrap;html=1;aspect=fixed;" vertex="1" parent="1">
          <mxGeometry x="704" y="200" width="30" height="30" as="geometry" />
        </mxCell>
        <mxCell id="gCWeyHVxX5DOliwRVkcP-20" value="Nome" style="text;html=1;align=center;verticalAlign=middle;resizable=0;points=[];autosize=1;strokeColor=none;fillColor=none;" vertex="1" parent="1">
          <mxGeometry x="729" y="200" width="60" height="30" as="geometry" />
        </mxCell>
        <mxCell id="gCWeyHVxX5DOliwRVkcP-22" value="" style="ellipse;whiteSpace=wrap;html=1;aspect=fixed;" vertex="1" parent="1">
          <mxGeometry x="704" y="240" width="30" height="30" as="geometry" />
        </mxCell>
        <mxCell id="gCWeyHVxX5DOliwRVkcP-23" value="Data scoperta" style="text;html=1;align=center;verticalAlign=middle;resizable=0;points=[];autosize=1;strokeColor=none;fillColor=none;" vertex="1" parent="1">
          <mxGeometry x="727" y="240" width="100" height="30" as="geometry" />
        </mxCell>
        <mxCell id="gCWeyHVxX5DOliwRVkcP-25" value="" style="ellipse;whiteSpace=wrap;html=1;aspect=fixed;" vertex="1" parent="1">
          <mxGeometry x="704" y="280" width="30" height="30" as="geometry" />
        </mxCell>
        <mxCell id="gCWeyHVxX5DOliwRVkcP-26" value="Scopritore" style="text;html=1;align=center;verticalAlign=middle;resizable=0;points=[];autosize=1;strokeColor=none;fillColor=none;" vertex="1" parent="1">
          <mxGeometry x="724" y="280" width="80" height="30" as="geometry" />
        </mxCell>
        <mxCell id="gCWeyHVxX5DOliwRVkcP-28" value="" style="ellipse;whiteSpace=wrap;html=1;aspect=fixed;" vertex="1" parent="1">
          <mxGeometry x="704" y="320" width="30" height="30" as="geometry" />
        </mxCell>
        <mxCell id="gCWeyHVxX5DOliwRVkcP-29" value="Tipo" style="text;html=1;align=center;verticalAlign=middle;resizable=0;points=[];autosize=1;strokeColor=none;fillColor=none;" vertex="1" parent="1">
          <mxGeometry x="727" y="320" width="50" height="30" as="geometry" />
        </mxCell>
        <mxCell id="gCWeyHVxX5DOliwRVkcP-31" value="" style="ellipse;whiteSpace=wrap;html=1;aspect=fixed;" vertex="1" parent="1">
          <mxGeometry x="704" y="360" width="30" height="30" as="geometry" />
        </mxCell>
        <mxCell id="gCWeyHVxX5DOliwRVkcP-32" value="Distanza" style="text;html=1;align=center;verticalAlign=middle;resizable=0;points=[];autosize=1;strokeColor=none;fillColor=none;" vertex="1" parent="1">
          <mxGeometry x="729" y="360" width="70" height="30" as="geometry" />
        </mxCell>
        <mxCell id="gCWeyHVxX5DOliwRVkcP-34" value="" style="ellipse;whiteSpace=wrap;html=1;aspect=fixed;" vertex="1" parent="1">
          <mxGeometry x="704" y="400" width="30" height="30" as="geometry" />
        </mxCell>
        <mxCell id="gCWeyHVxX5DOliwRVkcP-35" value="Coordinate a" style="text;html=1;align=center;verticalAlign=middle;resizable=0;points=[];autosize=1;strokeColor=none;fillColor=none;" vertex="1" parent="1">
          <mxGeometry x="727" y="400" width="90" height="30" as="geometry" />
        </mxCell>
        <mxCell id="gCWeyHVxX5DOliwRVkcP-39" value="" style="endArrow=none;html=1;rounded=0;" edge="1" parent="1">
          <mxGeometry width="50" height="50" relative="1" as="geometry">
            <mxPoint x="184.60000000000002" y="120" as="sourcePoint" />
            <mxPoint x="184.60000000000002" y="100" as="targetPoint" />
          </mxGeometry>
        </mxCell>
        <mxCell id="gCWeyHVxX5DOliwRVkcP-40" value="" style="endArrow=none;html=1;rounded=0;" edge="1" parent="1">
          <mxGeometry width="50" height="50" relative="1" as="geometry">
            <mxPoint x="560" y="120" as="sourcePoint" />
            <mxPoint x="560" y="100" as="targetPoint" />
          </mxGeometry>
        </mxCell>
        <mxCell id="gCWeyHVxX5DOliwRVkcP-42" value="" style="ellipse;whiteSpace=wrap;html=1;aspect=fixed;" vertex="1" parent="1">
          <mxGeometry x="704" y="440" width="30" height="30" as="geometry" />
        </mxCell>
        <mxCell id="gCWeyHVxX5DOliwRVkcP-43" value="Coordinate r" style="text;html=1;align=center;verticalAlign=middle;resizable=0;points=[];autosize=1;strokeColor=none;fillColor=none;" vertex="1" parent="1">
          <mxGeometry x="727" y="440" width="90" height="30" as="geometry" />
        </mxCell>
      </root>
    </mxGraphModel>
  </diagram>
</mxfile>
